<?xml version="1.0" encoding="UTF-8" standalone="no"?>
<svg
   xmlns:dc="http://purl.org/dc/elements/1.1/"
   xmlns:cc="http://creativecommons.org/ns#"
   xmlns:rdf="http://www.w3.org/1999/02/22-rdf-syntax-ns#"
   xmlns:svg="http://www.w3.org/2000/svg"
   xmlns="http://www.w3.org/2000/svg"
   xmlns:sodipodi="http://sodipodi.sourceforge.net/DTD/sodipodi-0.dtd"
   xmlns:inkscape="http://www.inkscape.org/namespaces/inkscape"
   sodipodi:docname="asyncmd.svg"
   inkscape:version="1.0 (4035a4fb49, 2020-05-01)"
   id="svg8"
   version="1.1"
   viewBox="0 0 210 210"
   height="210mm"
   width="210mm">
  <title
     id="title10">Icon asynCmd</title>
  <defs
     id="defs2">
    <inkscape:path-effect
       min_radius="4.9"
       phi="4.9"
       teeth="23"
       lpeversion="1"
       is_visible="true"
       id="path-effect94"
       effect="gears" />
    <inkscape:path-effect
       maxComplexity="1000"
       drawall="true"
       nbgenerations="1"
       similar_only="false"
       generator="m -137.58333,179.91666 h 33.51389 m 33.513886,0 h 33.513888"
       ref_path="M -137.58333,126.25916 H -37.041666"
       lpeversion="1"
       is_visible="true"
       id="path-effect92"
       effect="vonkoch" />
    <inkscape:path-effect
       tgtlength_rdm="0.3;1"
       tgtlength="100"
       tgtscale="10"
       tgt_places_rdmness="1;1"
       nbtangents="5"
       tremble_frequency="1"
       tremble_size="5;1"
       parallel_offset="5;1"
       ends_tolerance="0.1;1"
       strokeoverlap_rdm="0.3;1"
       strokeoverlap="0.3"
       strokelength_rdm="0.3;1"
       strokelength="100"
       nbiter_approxstrokes="5"
       lpeversion="1"
       is_visible="true"
       id="path-effect88"
       effect="sketch" />
    <inkscape:path-effect
       maxComplexity="1000"
       drawall="true"
       nbgenerations="0"
       similar_only="false"
       generator="m -121.70833,63.5 h 10.58334 m 10.58333,0 h 10.583332"
       ref_path="m -121.70833,50.270834 h 31.750002"
       lpeversion="1"
       is_visible="true"
       id="path-effect86"
       effect="vonkoch" />
    <inkscape:path-effect
       maxComplexity="1000"
       drawall="true"
       nbgenerations="0"
       similar_only="false"
       generator="m 68.791663,111.12575 h 24.694696 m 24.694691,0 h 24.6947"
       ref_path="M 68.791663,100.54204 H 142.87575"
       lpeversion="1"
       is_visible="true"
       id="path-effect82"
       effect="vonkoch" />
    <inkscape:path-effect
       only_selected="false"
       apply_with_weight="true"
       apply_no_weight="true"
       helper_size="0"
       steps="2"
       weight="33.333333"
       lpeversion="1"
       is_visible="true"
       id="path-effect80"
       effect="bspline" />
  </defs>
  <sodipodi:namedview
     inkscape:window-maximized="1"
     inkscape:window-y="-8"
     inkscape:window-x="-8"
     inkscape:window-height="837"
     inkscape:window-width="1600"
     showgrid="true"
     inkscape:document-rotation="0"
     inkscape:current-layer="layer1"
     inkscape:document-units="mm"
     inkscape:cy="386.96636"
     inkscape:cx="400"
     inkscape:zoom="0.7"
     inkscape:pageshadow="2"
     inkscape:pageopacity="0.0"
     borderopacity="1.0"
     bordercolor="#666666"
     pagecolor="#ffffff"
     id="base">
    <inkscape:grid
       id="grid12"
       type="xygrid" />
  </sodipodi:namedview>
  <metadata
     id="metadata5">
    <rdf:RDF>
      <cc:Work
         rdf:about="">
        <dc:format>image/svg+xml</dc:format>
        <dc:type
           rdf:resource="http://purl.org/dc/dcmitype/StillImage" />
        <dc:title>Icon asynCmd</dc:title>
        <cc:license
           rdf:resource="http://creativecommons.org/licenses/by-sa/4.0/" />
        <dc:creator>
          <cc:Agent>
            <dc:title>Sharkbyteprojects</dc:title>
          </cc:Agent>
        </dc:creator>
        <dc:date>2020/06/18</dc:date>
      </cc:Work>
      <cc:License
         rdf:about="http://creativecommons.org/licenses/by-sa/4.0/">
        <cc:permits
           rdf:resource="http://creativecommons.org/ns#Reproduction" />
        <cc:permits
           rdf:resource="http://creativecommons.org/ns#Distribution" />
        <cc:requires
           rdf:resource="http://creativecommons.org/ns#Notice" />
        <cc:requires
           rdf:resource="http://creativecommons.org/ns#Attribution" />
        <cc:permits
           rdf:resource="http://creativecommons.org/ns#DerivativeWorks" />
        <cc:requires
           rdf:resource="http://creativecommons.org/ns#ShareAlike" />
      </cc:License>
    </rdf:RDF>
  </metadata>
  <g
     id="layer1"
     inkscape:groupmode="layer"
     inkscape:label="Ebene 1">
    <path
       sodipodi:nodetypes="ccccc"
       d="m 10.583333,148.16667 h 63.5 l 5.291667,47.625 -71.4375,3.175 z"
       style="fill:#55ff55;stroke-width:0.264583"
       id="rect56" />
    <path
       transform="scale(0.26458333)"
       d="M 20,80 V 760 H 760 V 80 Z M 89.751953,610.76953 H 100 v 18.39649 c 5.84828,0.0908 11.84071,0.63729 17.97852,1.63671 6.13771,0.99939 11.29185,2.15722 15.46093,3.47461 v 13.35547 h -1.21484 c -4.34288,-2.08966 -8.88867,-3.92959 -13.63672,-5.51953 -4.69023,-1.63536 -10.88674,-2.65758 -18.58789,-3.0664 v 29.36914 c 1.73712,0.22715 3.61993,0.54425 5.64648,0.95312 2.02667,0.3634 3.79331,0.65957 5.29883,0.88672 8.62759,1.45364 15.28633,3.95087 19.97657,7.49414 4.74814,3.54331 7.12109,8.38297 7.12109,14.51562 0,7.04115 -3.50333,12.9011 -10.50977,17.58008 -7.00633,4.63355 -16.18412,7.38105 -27.5332,8.24414 v 24.66602 H 89.75 v -24.32617 c -7.643339,-0.0457 -14.822261,-0.61315 -21.539062,-1.70313 -6.716898,-1.13567 -12.537156,-2.58967 -17.458985,-4.36133 V 698.875 h 1.390625 c 1.10033,0.63598 3.069099,1.56647 5.90625,2.79297 2.837359,1.1811 5.588395,2.15745 8.251953,2.92969 3.010923,0.86316 6.514367,1.68093 10.509766,2.45312 4.053218,0.7268 8.366927,1.15848 12.941406,1.29492 v -29.5039 c -2.316208,-0.3634 -4.459005,-0.70558 -6.427734,-1.02344 -1.968741,-0.3634 -3.793454,-0.72625 -5.472657,-1.08984 -9.438269,-1.86248 -16.213048,-4.65587 -20.324218,-8.38086 -4.111144,-3.77042 -6.166027,-8.40375 -6.166016,-13.90039 0,-6.72318 3.35745,-12.40161 10.074219,-17.03516 6.774731,-4.63355 16.214446,-7.3371 28.316406,-8.10938 z m -0.002,28.3457 c -6.195749,0.36341 -11.405794,1.70276 -15.632812,4.01954 -4.226892,2.27134 -6.341797,5.45258 -6.341797,9.54101 0,4.13386 1.564637,7.24436 4.691406,9.33399 3.126799,2.08962 8.887103,3.83979 17.283203,5.24804 z M 100,680 v 28.20898 c 6.94839,-0.54508 12.2746,-1.93033 15.98047,-4.15625 3.76379,-2.22591 5.64648,-5.56379 5.64648,-10.01562 0,-4.27011 -1.70867,-7.3826 -5.125,-9.33594 C 113.14345,682.70237 107.64322,681.13567 100,680 Z m 50.20312,50.42383 h 113.7793 v 8.17578 h -113.7793 z"
       style="fill:#000000;stroke-width:0.999999"
       id="rect14" />
    <path
       transform="scale(0.26458333)"
       d="M 20,40 V 80 H 43.90625 V 40.353516 h 7.943359 c 1.957299,0 3.421888,0.105345 4.394532,0.318359 0.972643,0.213014 1.904376,0.657499 2.792968,1.332031 0.984653,0.763288 1.698285,1.748013 2.142579,2.955078 0.444297,1.189312 0.666015,2.618524 0.666015,4.28711 0,1.881597 -0.324225,3.488994 -0.972656,4.820312 -0.648431,1.313567 -1.513032,2.369178 -2.59375,3.167969 v 0.212891 c 1.813203,0.550279 3.242415,1.730422 4.287109,3.541015 1.044692,1.792844 1.566407,4.065011 1.566406,6.816407 10e-7,1.970352 -0.251526,3.709922 -0.755859,5.21875 -0.504335,1.508826 -1.18259,2.752213 -2.035156,3.728515 -1.00867,1.17156 -2.119226,2.00493 -3.332031,2.501953 C 56.808967,79.750934 55.277249,80 53.416016,80 h 12.644531 l 9.763672,-39.646484 h 4.753906 L 90.341797,80 h 7.710937 c -0.08972,-0.02868 -0.184973,-0.04967 -0.273437,-0.08008 -1.537021,-0.532528 -3.104115,-1.321836 -4.701172,-2.369141 v -6.603515 h 0.251953 c 1.356901,1.668585 2.923993,2.95603 4.701172,3.861328 1.777179,0.905297 3.44678,1.357422 5.00781,1.357422 2.20947,0 3.92753,-0.613075 5.15235,-1.837891 1.23682,-1.224814 1.85546,-2.857083 1.85547,-4.898437 -1e-5,-1.75734 -0.29443,-3.054379 -0.88282,-3.888672 -0.57638,-0.834296 -1.45965,-1.481839 -2.64844,-1.94336 -0.90058,-0.355021 -1.87884,-0.648146 -2.93554,-0.878906 -1.04469,-0.230778 -2.15525,-0.523905 -3.33203,-0.878906 -2.377583,-0.745542 -4.144115,-2.013799 -5.296878,-3.806641 -1.140757,-1.810593 -1.710938,-4.163241 -1.710938,-7.056641 0,-3.319421 0.948446,-6.034124 2.845704,-8.146484 1.26562,-1.42095 2.76402,-2.356969 4.484372,-2.830078 z m 86.86328,0 c 0.56019,0.118459 1.10941,0.255742 1.63477,0.433594 1.57304,0.532525 2.96493,1.189661 4.17773,1.970703 v 6.230469 h -0.25195 c -1.02068,-1.278068 -2.36605,-2.335629 -4.03516,-3.169922 -1.6571,-0.852044 -3.3565,-1.277344 -5.09765,-1.277344 -1.90927,0 -3.446564,0.586253 -4.611332,1.757812 -1.152769,1.171561 -1.728516,2.679293 -1.728516,4.525391 0,1.650835 0.288849,2.947875 0.865234,3.888672 0.576383,0.9408 1.590003,1.659224 3.042974,2.15625 0.7685,0.248517 1.86235,0.549283 3.27929,0.904297 1.41694,0.355018 2.61691,0.719027 3.60156,1.091797 1.99333,0.781042 3.49524,1.963136 4.50391,3.542969 1.00867,1.579828 1.51172,3.788757 1.51172,6.628906 0,1.544327 -0.24596,3.07125 -0.73828,4.580078 -0.48032,1.50883 -1.15858,2.78668 -2.03516,3.833984 -0.96064,1.136061 -2.08233,2.02308 -3.36719,2.66211 -0.18201,0.09138 -0.38138,0.161904 -0.57421,0.240234 h 12.44336 V 40.353516 h 3.5664 v 15.548828 h 13.38281 V 40.353516 H 140 V 80 H 760 V 40 Z m -59.390624,4.853516 v 11.449218 h 4.611328 c 1.116742,0 2.005576,-0.08046 2.666016,-0.240234 0.660437,-0.177512 1.271563,-0.531925 1.835938,-1.064453 0.564373,-0.532525 0.9613,-1.216486 1.189453,-2.050781 0.240151,-0.852044 0.359375,-1.854001 0.359375,-3.007813 0,-0.958549 -0.108081,-1.767044 -0.324219,-2.423828 -0.216114,-0.656784 -0.562626,-1.189384 -1.042969,-1.597656 -0.564377,-0.479275 -1.250152,-0.772402 -2.054687,-0.878907 -0.804533,-0.124244 -1.801447,-0.185546 -2.990235,-0.185546 z m 30.638672,0.105468 -4.71875,19.464844 H 82.8125 Z m 44.939452,15.63086 V 80 h 13.38281 V 60.589844 Z M 47.472656,60.75 V 75.5 h 4.71875 c 1.561036,0 2.839276,-0.11495 3.835938,-0.345703 0.996661,-0.248517 1.81475,-0.693001 2.451172,-1.332031 0.672448,-0.692289 1.164356,-1.481597 1.476562,-2.369141 0.312207,-0.887549 0.46875,-2.033226 0.46875,-3.435547 0,-1.597581 -0.162113,-2.865841 -0.486328,-3.80664 -0.324215,-0.940801 -0.913059,-1.739701 -1.765625,-2.396485 -0.57638,-0.443772 -1.278869,-0.727307 -2.107422,-0.851562 C 55.247914,60.820881 54.251002,60.75 53.074219,60.75 Z M 72.310547,68.949219 69.681641,80 h 16.859375 l -2.63086,-11.050781 z"
       style="fill:#666666;stroke-width:0.999999"
       id="rect30" />
    <path
       sodipodi:nodetypes="ccccccc"
       d="m 132.29167,84.66667 c 1.76443,5.292781 3.52809,10.583767 5.29166,15.875 -22.92956,2.6e-4 -45.860108,0.001 -68.791664,0 10e-4,1.76489 10e-4,3.52878 0,5.29167 24.695446,10e-4 49.389884,10e-4 74.083334,0 0.001,-1.76289 0.001,-3.52678 0,-5.29167 -3.52678,-5.290673 -7.05472,-10.582219 -10.58333,-15.875 z"
       style="fill:#0066ff;stroke-width:0.264583"
       id="rect61" />
    <path
       sodipodi:nodetypes="ccccccc"
       d="m 68.791666,111.12501 v 5.29166 l 10.583337,15.875 -5.291667,-15.875 H 142.875 v -5.29166 z"
       style="fill:#55ff55;stroke-width:0.264583"
       id="rect63" />
  </g>
</svg>
